<mxfile host="Electron" modified="2023-09-19T11:16:37.357Z" agent="Mozilla/5.0 (Macintosh; Intel Mac OS X 10_15_7) AppleWebKit/537.36 (KHTML, like Gecko) draw.io/21.5.1 Chrome/112.0.5615.204 Electron/24.6.0 Safari/537.36" etag="x3-PZN3WgJdcV3RRSmto" version="21.5.1" type="device">
  <diagram name="PÃ¡gina-1" id="csSn5JXQ56xnwb9KgIkt">
    <mxGraphModel dx="927" dy="1034" grid="1" gridSize="10" guides="1" tooltips="1" connect="1" arrows="1" fold="1" page="1" pageScale="1" pageWidth="827" pageHeight="1169" math="0" shadow="0">
      <root>
        <mxCell id="0" />
        <mxCell id="1" parent="0" />
        <mxCell id="gIALb-mUkqeqKEL-KeRg-1" value="" style="shape=image;aspect=fixed;image=data:image/svg+xml,PD94bWwgdmVyc2lvbj0iMS4wIiBlbmNvZGluZz0iaXNvLTg4NTktMSI/Pg0KPCEtLSBVcGxvYWRlZCB0bzogU1ZHIFJlcG8sIHd3dy5zdmdyZXBvLmNvbSwgR2VuZXJhdG9yOiBTVkcgUmVwbyBNaXhlciBUb29scyAtLT4NCjxzdmcgZmlsbD0iIzAwMDAwMCIgaGVpZ2h0PSI4MDBweCIgd2lkdGg9IjgwMHB4IiB2ZXJzaW9uPSIxLjEiIGlkPSJMYXllcl8xIiB4bWxucz0iaHR0cDovL3d3dy53My5vcmcvMjAwMC9zdmciIHhtbG5zOnhsaW5rPSJodHRwOi8vd3d3LnczLm9yZy8xOTk5L3hsaW5rIiANCgkgdmlld0JveD0iMCAwIDQ4OCA0ODgiIHhtbDpzcGFjZT0icHJlc2VydmUiPg0KPGcgdHJhbnNmb3JtPSJ0cmFuc2xhdGUoMCAtNTQwLjM2KSI+DQoJPGc+DQoJCTxnPg0KCQkJPHBhdGggZD0iTTM1MS4xLDg0Ni45NmwtOTcuMS02Ny45di0xMTYuN2MwLTUuNS00LjUtMTAtMTAtMTBzLTEwLDQuNS0xMCwxMHYxMjJjMCwzLjMsMS42LDYuMyw0LjMsOC4ybDEwMS40LDcwLjkNCgkJCQljMS43LDEuMiwzLjcsMS44LDUuNywxLjh2MGMzLjEsMCw2LjItMS41LDguMi00LjRDMzU2LjcsODU2LjM2LDM1NS42LDg1MC4xNiwzNTEuMSw4NDYuOTZ6Ii8+DQoJCQk8cGF0aCBkPSJNNDE2LjQsNjExLjk2TDQxNi40LDYxMS45NmMtNDYuMi00Ni4yLTEwNy40LTcxLjYtMTcyLjQtNzEuNnMtMTI2LjIsMjUuNC0xNzIuNCw3MS42QzI1LjQsNjU4LjE2LDAsNzE5LjM2LDAsNzg0LjM2DQoJCQkJczI1LjQsMTI2LjIsNzEuNiwxNzIuNGM0Ni4yLDQ2LjIsMTA3LjQsNzEuNiwxNzIuNCw3MS42czEyNi4yLTI1LjQsMTcyLjQtNzEuNnM3MS42LTEwNy40LDcxLjYtMTcyLjRTNDYyLjYsNjU4LjE2LDQxNi40LDYxMS45Ng0KCQkJCXogTTI1NCwxMDA4LjE2TDI1NCwxMDA4LjE2di00MC44YzAtNS41LTQuNS0xMC0xMC0xMHMtMTAsNC41LTEwLDEwdjQwLjhjLTExNS42LTUuMS0yMDguNy05OC4yLTIxMy44LTIxMy44SDYxDQoJCQkJYzUuNSwwLDEwLTQuNSwxMC0xMHMtNC41LTEwLTEwLTEwSDIwLjJjNS4xLTExNS42LDk4LjItMjA4LjcsMjEzLjgtMjEzLjh2NDAuOGMwLDUuNSw0LjUsMTAsMTAsMTBzMTAtNC41LDEwLTEwdi00MC44DQoJCQkJYzExNS42LDUuMSwyMDguNyw5OC4yLDIxMy44LDIxMy44SDQyN2MtNS41LDAtMTAsNC41LTEwLDEwczQuNSwxMCwxMCwxMGg0MC44QzQ2Mi43LDkwOS45NiwzNjkuNiwxMDAzLjA2LDI1NCwxMDA4LjE2eiIvPg0KCQk8L2c+DQoJPC9nPg0KPC9nPg0KPC9zdmc+;" parent="1" vertex="1">
          <mxGeometry x="920" y="80" width="40" height="40" as="geometry" />
        </mxCell>
        <mxCell id="gIALb-mUkqeqKEL-KeRg-2" value="&lt;font color=&quot;#7ea6e0&quot; style=&quot;font-size: 43px;&quot;&gt;{&lt;/font&gt;" style="text;strokeColor=none;align=center;fillColor=none;html=1;verticalAlign=middle;whiteSpace=wrap;rounded=0;" parent="1" vertex="1">
          <mxGeometry x="882" y="66" width="63" height="60" as="geometry" />
        </mxCell>
        <mxCell id="nA5Wse7C6HK7rVOY0XSW-2" value="&lt;font color=&quot;#7ea6e0&quot; style=&quot;font-size: 43px;&quot;&gt;}&lt;/font&gt;" style="text;strokeColor=none;align=center;fillColor=none;html=1;verticalAlign=middle;whiteSpace=wrap;rounded=0;" parent="1" vertex="1">
          <mxGeometry x="935" y="66" width="63" height="60" as="geometry" />
        </mxCell>
        <mxCell id="nA5Wse7C6HK7rVOY0XSW-3" value="&lt;font style=&quot;font-size: 24px;&quot;&gt;&lt;font color=&quot;#7ea6e0&quot;&gt;Open&lt;/font&gt;Simula&lt;/font&gt;" style="text;strokeColor=none;align=center;fillColor=none;html=1;verticalAlign=middle;whiteSpace=wrap;rounded=0;" parent="1" vertex="1">
          <mxGeometry x="960" y="85" width="170" height="30" as="geometry" />
        </mxCell>
        <mxCell id="nA5Wse7C6HK7rVOY0XSW-7" style="edgeStyle=orthogonalEdgeStyle;rounded=0;orthogonalLoop=1;jettySize=auto;html=1;exitX=0.5;exitY=1;exitDx=0;exitDy=0;entryX=0.5;entryY=0;entryDx=0;entryDy=0;" parent="1" source="nA5Wse7C6HK7rVOY0XSW-4" target="nA5Wse7C6HK7rVOY0XSW-5" edge="1">
          <mxGeometry relative="1" as="geometry" />
        </mxCell>
        <mxCell id="nA5Wse7C6HK7rVOY0XSW-10" style="edgeStyle=orthogonalEdgeStyle;rounded=0;orthogonalLoop=1;jettySize=auto;html=1;exitX=0.5;exitY=1;exitDx=0;exitDy=0;" parent="1" source="nA5Wse7C6HK7rVOY0XSW-4" target="nA5Wse7C6HK7rVOY0XSW-9" edge="1">
          <mxGeometry relative="1" as="geometry" />
        </mxCell>
        <mxCell id="nA5Wse7C6HK7rVOY0XSW-4" value="&lt;font style=&quot;font-size: 18px;&quot;&gt;Simulation&lt;/font&gt;" style="rounded=1;whiteSpace=wrap;html=1;fillColor=#dae8fc;strokeColor=#6c8ebf;" parent="1" vertex="1">
          <mxGeometry x="1181" y="160" width="120" height="60" as="geometry" />
        </mxCell>
        <mxCell id="nA5Wse7C6HK7rVOY0XSW-13" style="edgeStyle=orthogonalEdgeStyle;rounded=0;orthogonalLoop=1;jettySize=auto;html=1;exitX=0.5;exitY=1;exitDx=0;exitDy=0;" parent="1" source="nA5Wse7C6HK7rVOY0XSW-5" target="nA5Wse7C6HK7rVOY0XSW-11" edge="1">
          <mxGeometry relative="1" as="geometry" />
        </mxCell>
        <mxCell id="nA5Wse7C6HK7rVOY0XSW-14" style="edgeStyle=orthogonalEdgeStyle;rounded=0;orthogonalLoop=1;jettySize=auto;html=1;exitX=0.5;exitY=1;exitDx=0;exitDy=0;" parent="1" source="nA5Wse7C6HK7rVOY0XSW-5" target="nA5Wse7C6HK7rVOY0XSW-12" edge="1">
          <mxGeometry relative="1" as="geometry" />
        </mxCell>
        <mxCell id="nA5Wse7C6HK7rVOY0XSW-5" value="&lt;span style=&quot;font-size: 18px;&quot;&gt;Project&lt;/span&gt;&lt;br&gt;&lt;font style=&quot;font-size: 12px;&quot;&gt;Project_1&lt;/font&gt;" style="rounded=1;whiteSpace=wrap;html=1;fillColor=#d5e8d4;strokeColor=#82b366;" parent="1" vertex="1">
          <mxGeometry x="1080" y="300" width="120" height="60" as="geometry" />
        </mxCell>
        <mxCell id="nA5Wse7C6HK7rVOY0XSW-9" value="&lt;span style=&quot;font-size: 18px;&quot;&gt;Project&lt;/span&gt;&lt;br&gt;&lt;font style=&quot;font-size: 12px;&quot;&gt;Project_n&lt;/font&gt;" style="rounded=1;whiteSpace=wrap;html=1;fillColor=#d5e8d4;strokeColor=#82b366;" parent="1" vertex="1">
          <mxGeometry x="1360" y="300" width="120" height="60" as="geometry" />
        </mxCell>
        <mxCell id="nA5Wse7C6HK7rVOY0XSW-11" value="&lt;span style=&quot;font-size: 18px;&quot;&gt;Component&lt;/span&gt;&lt;br&gt;&lt;font style=&quot;font-size: 12px;&quot;&gt;Component_1&lt;/font&gt;" style="rounded=1;whiteSpace=wrap;html=1;fillColor=#f8cecc;strokeColor=#b85450;" parent="1" vertex="1">
          <mxGeometry x="960" y="420" width="120" height="60" as="geometry" />
        </mxCell>
        <mxCell id="nA5Wse7C6HK7rVOY0XSW-12" value="&lt;span style=&quot;font-size: 18px;&quot;&gt;Component&lt;/span&gt;&lt;br&gt;&lt;font style=&quot;font-size: 12px;&quot;&gt;Component_n&lt;/font&gt;" style="rounded=1;whiteSpace=wrap;html=1;fillColor=#f8cecc;strokeColor=#b85450;" parent="1" vertex="1">
          <mxGeometry x="1201" y="420" width="120" height="60" as="geometry" />
        </mxCell>
      </root>
    </mxGraphModel>
  </diagram>
</mxfile>
